name C:\Users\Nicos\Documents\OpenSimProjects\SprintingProject\Study1\PredictiveResults\IC_pred_Sprinting_optimum_26-October-2023__22-16-26___HTD_Plus_4_p02_maxVel_01.mot
datacolumns 38
datarows 8
range 0.10886144 0.11517433
endheader
                time	/jointset/ground_pelvis/pelvis_tilt/value	/jointset/ground_pelvis/pelvis_list/value	/jointset/ground_pelvis/pelvis_rotation/value	/jointset/ground_pelvis/pelvis_tx/value	/jointset/ground_pelvis/pelvis_ty/value	/jointset/ground_pelvis/pelvis_tz/value	/jointset/hip_r/hip_flexion_r/value	/jointset/hip_r/hip_adduction_r/value	/jointset/hip_r/hip_rotation_r/value	/jointset/knee_r/knee_angle_r/value	/jointset/ankle_r/ankle_angle_r/value	/jointset/subtalar_r/subtalar_angle_r/value	/jointset/mtp_r/mtp_angle_r/value	/jointset/hip_l/hip_flexion_l/value	/jointset/hip_l/hip_adduction_l/value	/jointset/hip_l/hip_rotation_l/value	/jointset/knee_l/knee_angle_l/value	/jointset/ankle_l/ankle_angle_l/value	/jointset/subtalar_l/subtalar_angle_l/value	/jointset/mtp_l/mtp_angle_l/value	/jointset/back/lumbar_extension/value	/jointset/back/lumbar_bending/value	/jointset/back/lumbar_rotation/value	/jointset/acromial_r/arm_flex_r/value	/jointset/acromial_r/arm_add_r/value	/jointset/acromial_r/arm_rot_r/value	/jointset/elbow_r/elbow_flex_r/value	/jointset/radioulnar_r/pro_sup_r/value	/jointset/radius_hand_r/wrist_flex_r/value	/jointset/radius_hand_r/wrist_dev_r/value	/jointset/acromial_l/arm_flex_l/value	/jointset/acromial_l/arm_add_l/value	/jointset/acromial_l/arm_rot_l/value	/jointset/elbow_l/elbow_flex_l/value	/jointset/radioulnar_l/pro_sup_l/value	/jointset/radius_hand_l/wrist_flex_l/value	/jointset/radius_hand_l/wrist_dev_l/value	
          0.10886144	         -9.44065337	         -0.88309691	        -18.06849991	          0.63313271	          0.95812961	          0.30805521	          7.78024419	         -0.15403097	         10.44996002	        -24.63242327	         16.19221739	         -4.74584940	         14.79702885	         56.37810925	        -12.71418409	         -1.10985986	       -138.89582728	          1.85660664	        -22.28461516	          3.26077505	        -12.18887258	          4.89479616	         11.09360507	         52.65743201	        -21.24474763	        -14.78819812	        113.24262924	         85.43881437	        -18.01931492	          6.58969026	        -44.04452140	        -16.83778761	         -4.37304015	         81.17324650	         83.99500440	        -26.50603873	          5.68830987	
          0.11034571	         -9.36796288	         -0.60283378	        -17.96972833	          0.65124936	          0.95770781	          0.30779005	          7.04222553	         -0.76524305	         10.34352800	        -25.12141237	         15.76493311	         -4.91745243	         14.26953557	         57.54851416	        -12.30551955	         -0.86604443	       -138.84044869	          1.87318778	        -22.47626071	          4.12823396	        -12.06643788	          4.60050150	         11.06751026	         54.11528592	        -20.75171383	        -14.62926556	        114.11073260	         85.04772120	        -17.82921843	          6.69390529	        -45.57025539	        -16.87710210	         -4.60006312	         82.22846576	         84.79036440	        -26.66614501	          5.64257301	
          0.11034571	         -9.36796288	         -0.60283378	        -17.96972833	          0.65124936	          0.95770781	          0.30779005	          7.04222553	         -0.76524305	         10.34352800	        -25.12141237	         15.76493311	         -4.91745243	         14.26953557	         57.54851416	        -12.30551955	         -0.86604443	       -138.84044869	          1.87318778	        -22.47626071	          4.12823396	        -12.06643788	          4.60050150	         11.06751026	         54.11528592	        -20.75171383	        -14.62926556	        114.11073260	         85.04772120	        -17.82921843	          6.69390529	        -45.57025539	        -16.87710210	         -4.60006312	         82.22846576	         84.79036440	        -26.66614501	          5.64257301	
          0.11099389	         -9.33906626	         -0.47842096	        -17.91498417	          0.65917069	          0.95752544	          0.30766823	          6.72561980	         -1.03517101	         10.27060041	        -25.33642911	         15.54906835	         -4.99552859	         13.98295666	         58.06164095	        -12.11883850	         -0.76054937	       -138.80338550	          1.87675138	        -22.55753419	          4.51033671	        -12.00724360	          4.47126516	         11.04289296	         54.74362656	        -20.52827080	        -14.54308326	        114.47277040	         84.87624601	        -17.74481506	          6.74154920	        -46.24080333	        -16.89381785	         -4.72004954	         82.68886128	         85.12582560	        -26.73501551	          5.62232075	
          0.11304188	         -9.26256243	         -0.08300829	        -17.69968741	          0.68423054	          0.95695257	          0.30725971	          5.75163832	         -1.88930570	          9.94777860	        -26.02739567	         14.74374029	         -5.26237298	         12.97730576	         59.69229136	        -11.50379693	         -0.43026880	       -138.63595808	          1.87322123	        -22.79704986	          5.73753480	        -11.79757107	          4.06740414	         10.91766927	         56.69622841	        -19.79665562	        -14.19124311	        115.54069910	         84.32645122	        -17.47325239	          6.89934396	        -48.37297851	        -16.94652826	         -5.16077312	         84.14397229	         86.10816252	        -26.95096855	          5.56159885	
          0.11452615	         -9.22323927	          0.20725363	        -17.51384329	          0.70241380	          0.95653843	          0.30694909	          5.07700957	         -2.50783222	          9.64379594	        -26.54327371	         14.03705128	         -5.47508299	         12.19571765	         60.88131543	        -11.04299088	         -0.20211008	       -138.46626123	          1.85720379	        -22.94791965	          6.63326702	        -11.62328772	          3.77680614	         10.79257381	         58.07920237	        -19.25102368	        -13.84850992	        116.23585587	         83.92880415	        -17.27196310	          7.01732673	        -49.92376062	        -16.98577315	         -5.52189239	         85.18373686	         86.74645054	        -27.10597640	          5.52024047	
          0.11452615	         -9.22323927	          0.20725363	        -17.51384329	          0.70241380	          0.95653843	          0.30694909	          5.07700957	         -2.50783222	          9.64379594	        -26.54327371	         14.03705128	         -5.47508299	         12.19571765	         60.88131543	        -11.04299088	         -0.20211008	       -138.46626123	          1.85720379	        -22.94791965	          6.63326702	        -11.62328772	          3.77680614	         10.79257381	         58.07920237	        -19.25102368	        -13.84850992	        116.23585587	         83.92880415	        -17.27196310	          7.01732673	        -49.92376062	        -16.98577315	         -5.52189239	         85.18373686	         86.74645054	        -27.10597640	          5.52024047	
          0.11517433	         -9.21031935	          0.33510608	        -17.42758836	          0.71035782	          0.95635815	          0.30681177	          4.79154602	         -2.77729505	          9.49706943	        -26.77341175	         13.69790609	         -5.57287962	         11.80772323	         61.40137025	        -10.84025184	         -0.10745894	       -138.37925217	          1.84673990	        -23.00630364	          7.02282732	        -11.54176964	          3.65000173	         10.73175446	         58.67456093	        -19.01087823	        -13.67279474	        116.51689998	         83.75743307	        -17.18291649	          7.06900486	        -50.60036664	        -17.00346810	         -5.68624595	         85.62976637	         87.00577782	        -27.17326374	          5.50273359	
